<?xml version="1.0" encoding="utf-8"?>
<!-- Generator: Adobe Illustrator 21.1.0, SVG Export Plug-In . SVG Version: 6.00 Build 0)  -->
<svg version="1.1" id="Layer_1" xmlns="http://www.w3.org/2000/svg" xmlns:xlink="http://www.w3.org/1999/xlink" x="0px" y="0px"
	 viewBox="0 0 800 800" style="enable-background:new 0 0 800 800;" xml:space="preserve">
<style type="text/css">
	.st0{fill:#E42C31;}
	.st1{display:none;}
	.st2{display:inline;fill:#FFFFFF;}
	.st3{enable-background:new    ;}
	.st4{fill:#FFFFFF;}
	.st5{fill:#011627;}
	.st6{fill:#2C3176;}
</style>
<rect x="3.3" class="st0" width="800" height="800"/>
<rect x="1.6" class="st0" width="800" height="800"/>
<g>
	<g>
		<path class="st4" d="M577.6,372.6c-12.9-0.1-24.8,6.9-31.2,18.2l0,0c-6.3,11.1-6.3,24.7,0.1,35.7L614,543.3
			c6.4,11.1,18.2,17.9,31.1,17.9l0,0c19.8,0,35.9-16.1,35.9-35.9c0-6.3-1.7-12.5-4.8-17.9l-67.5-116.9
			C602.3,379.4,590.4,372.5,577.6,372.6L577.6,372.6z"/>
		<path class="st4" d="M546.3,234.1c-15.6-0.1-30.1,8.3-37.8,21.8L398.8,446l-32-55.5c-9.9-17.2-31.8-23-49-13.1
			c-5.5,3.2-10.1,7.8-13.2,13.3l0,0c-6.3,11.1-6.3,24.7,0.1,35.7l67.5,116.9c1.1,1.9,2.4,3.7,3.8,5.3c11.9,17.9,36.1,22.8,54.1,10.9
			c5.5-3.7,10-8.7,13.1-14.6c1.4-1.8,2.7-3.6,3.8-5.6l43.7-75.6l93.7-164.3c7.7-13.5,7.6-30-0.1-43.5l0,0
			C576.4,242.3,561.9,233.9,546.3,234.1L546.3,234.1z"/>
		<path class="st4" d="M304.5,234.1c-15.6-0.1-30.1,8.3-37.8,21.8L128.2,495.6c-12.1,20.9-4.9,47.6,16,59.7
			c6.6,3.8,14.2,5.9,21.8,5.9h1.2c15.6,0,30-8.3,37.8-21.8l43.7-75.6l93.7-164.4c7.7-13.5,7.6-30-0.1-43.5l0,0
			C334.5,242.3,320.1,234,304.5,234.1L304.5,234.1z"/>
	</g>
</g>
</svg>
